<svg xmlns="http://www.w3.org/2000/svg" width="1600" height="900" viewBox="0 0 1600 900">
  <defs>
    <linearGradient id="bg" x1="0" y1="0" x2="1" y2="1">
      <stop offset="0%" stop-color="#0b0d12"/>
      <stop offset="100%" stop-color="#151821"/>
    </linearGradient>
    <linearGradient id="accent" x1="0" y1="0" x2="1" y2="0">
      <stop offset="0%" stop-color="#ff5555"/>
      <stop offset="100%" stop-color="#ff8a5b"/>
    </linearGradient>
    <filter id="shadow" x="-20%" y="-20%" width="140%" height="140%">
      <feDropShadow dx="0" dy="16" stdDeviation="18" flood-color="#000000" flood-opacity="0.45"/>
    </filter>
  </defs>
  <rect width="1600" height="900" fill="url(#bg)"/>
  <rect x="44" y="40" width="1512" height="68" rx="18" fill="#1b1f29"/>
  <rect x="44" y="140" width="1512" height="720" rx="28" fill="#10131a" stroke="#2d3342" stroke-width="1" filter="url(#shadow)"/>
  <text x="84" y="84" fill="#f4f4f4" font-family="Inter, Arial, sans-serif" font-size="30" font-weight="700">AI-Driven WiFi Security Analyzer</text>
  <rect x="86" y="206" width="304" height="84" rx="20" fill="url(#accent)"/>
  <text x="116" y="257" fill="#ffffff" font-family="Inter, Arial, sans-serif" font-size="26" font-weight="700">Scan and Prioritize Networks</text>
  <rect x="86" y="326" width="1440" height="460" rx="22" fill="#171b24" stroke="#2b3140" stroke-width="1"/>
  <rect x="118" y="364" width="250" height="340" rx="18" fill="#202635"/>
  <rect x="388" y="364" width="1020" height="340" rx="18" fill="#202635"/>
  <rect x="118" y="736" width="250" height="18" rx="9" fill="#ff5a5a"/>
  <rect x="388" y="736" width="240" height="18" rx="9" fill="#6ee7b7"/>
  <rect x="644" y="736" width="240" height="18" rx="9" fill="#fbbf24"/>
  <rect x="900" y="736" width="240" height="18" rx="9" fill="#60a5fa"/>
  <text x="118" y="332" fill="#d7dbe8" font-family="Inter, Arial, sans-serif" font-size="22" font-weight="600">Network Risk Overview</text>
  <text x="388" y="332" fill="#d7dbe8" font-family="Inter, Arial, sans-serif" font-size="22" font-weight="600">Top Findings</text>
  <circle cx="196" cy="438" r="52" fill="#ff5555" opacity="0.9"/>
  <circle cx="196" cy="540" r="52" fill="#fbbf24" opacity="0.9"/>
  <circle cx="196" cy="642" r="52" fill="#60a5fa" opacity="0.9"/>
  <text x="286" y="450" fill="#f3f4f6" font-family="Inter, Arial, sans-serif" font-size="20">High risk networks</text>
  <text x="286" y="552" fill="#f3f4f6" font-family="Inter, Arial, sans-serif" font-size="20">Medium risk networks</text>
  <text x="286" y="654" fill="#f3f4f6" font-family="Inter, Arial, sans-serif" font-size="20">Low risk networks</text>
  <rect x="420" y="384" width="940" height="54" rx="12" fill="#2a3140"/>
  <rect x="420" y="456" width="940" height="54" rx="12" fill="#242a38"/>
  <rect x="420" y="528" width="940" height="54" rx="12" fill="#2a3140"/>
  <rect x="420" y="600" width="940" height="54" rx="12" fill="#242a38"/>
  <text x="450" y="419" fill="#cfd5e4" font-family="Inter, Arial, sans-serif" font-size="18">SSID   | Security | Signal | Risk Score | Label</text>
  <text x="450" y="491" fill="#cfd5e4" font-family="Inter, Arial, sans-serif" font-size="18">Cafe_WiFi | WPA2 | -61 dBm | 91 | High</text>
  <text x="450" y="563" fill="#cfd5e4" font-family="Inter, Arial, sans-serif" font-size="18">Guest_AP | WPA2 | -71 dBm | 64 | Medium</text>
  <text x="450" y="635" fill="#cfd5e4" font-family="Inter, Arial, sans-serif" font-size="18">Lab_Network | WPA3 | -48 dBm | 18 | Low</text>
</svg>