<svg xmlns="http://www.w3.org/2000/svg" width="1600" height="900" viewBox="0 0 1600 900">
  <defs>
    <linearGradient id="bg2" x1="0" y1="0" x2="1" y2="1">
      <stop offset="0%" stop-color="#0b0d12"/>
      <stop offset="100%" stop-color="#161a24"/>
    </linearGradient>
    <filter id="shadow2" x="-20%" y="-20%" width="140%" height="140%">
      <feDropShadow dx="0" dy="16" stdDeviation="18" flood-color="#000000" flood-opacity="0.45"/>
    </filter>
  </defs>
  <rect width="1600" height="900" fill="url(#bg2)"/>
  <rect x="50" y="44" width="1500" height="812" rx="30" fill="#10131a" stroke="#2d3342" filter="url(#shadow2)"/>
  <text x="88" y="108" fill="#f4f4f4" font-family="Inter, Arial, sans-serif" font-size="34" font-weight="700">Password Pattern Intelligence</text>
  <text x="88" y="154" fill="#b9c0d4" font-family="Inter, Arial, sans-serif" font-size="20">Defensive analysis of weak patterns and generated hardening suggestions</text>
  <rect x="88" y="206" width="620" height="74" rx="18" fill="#1d2230"/>
  <text x="118" y="251" fill="#e5e7eb" font-family="Inter, Arial, sans-serif" font-size="22">Test password: password123</text>
  <rect x="88" y="302" width="620" height="470" rx="22" fill="#1a1f2a"/>
  <text x="120" y="348" fill="#e5e7eb" font-family="Inter, Arial, sans-serif" font-size="24" font-weight="600">Score: 24/100</text>
  <text x="120" y="390" fill="#ff7777" font-family="Inter, Arial, sans-serif" font-size="20">Rating: Weak</text>
  <text x="120" y="450" fill="#cfd5e4" font-family="Inter, Arial, sans-serif" font-size="20">Findings</text>
  <text x="140" y="490" fill="#cfd5e4" font-family="Inter, Arial, sans-serif" font-size="18">• Contains a common dictionary word</text>
  <text x="140" y="528" fill="#cfd5e4" font-family="Inter, Arial, sans-serif" font-size="18">• Predictable number suffix</text>
  <text x="140" y="566" fill="#cfd5e4" font-family="Inter, Arial, sans-serif" font-size="18">• No uppercase or special characters</text>
  <text x="120" y="630" fill="#cfd5e4" font-family="Inter, Arial, sans-serif" font-size="20">Recommendations</text>
  <text x="140" y="670" fill="#cfd5e4" font-family="Inter, Arial, sans-serif" font-size="18">• Use 14+ characters with mixed character classes</text>
  <text x="140" y="708" fill="#cfd5e4" font-family="Inter, Arial, sans-serif" font-size="18">• Avoid names, dates, and organization terms</text>
  <rect x="760" y="206" width="700" height="566" rx="22" fill="#1a1f2a"/>
  <text x="794" y="254" fill="#e5e7eb" font-family="Inter, Arial, sans-serif" font-size="24" font-weight="600">Generated Defensive Blocklist</text>
  <rect x="794" y="300" width="620" height="44" rx="12" fill="#2a3140"/>
  <rect x="794" y="358" width="620" height="44" rx="12" fill="#242a38"/>
  <rect x="794" y="416" width="620" height="44" rx="12" fill="#2a3140"/>
  <rect x="794" y="474" width="620" height="44" rx="12" fill="#242a38"/>
  <rect x="794" y="532" width="620" height="44" rx="12" fill="#2a3140"/>
  <text x="822" y="330" fill="#cfd5e4" font-family="Inter, Arial, sans-serif" font-size="18">company123</text>
  <text x="822" y="388" fill="#cfd5e4" font-family="Inter, Arial, sans-serif" font-size="18">company2026</text>
  <text x="822" y="446" fill="#cfd5e4" font-family="Inter, Arial, sans-serif" font-size="18">teamname!</text>
  <text x="822" y="504" fill="#cfd5e4" font-family="Inter, Arial, sans-serif" font-size="18">campus-WiFi</text>
  <text x="822" y="562" fill="#cfd5e4" font-family="Inter, Arial, sans-serif" font-size="18">campus2026#</text>
</svg>