<svg xmlns="http://www.w3.org/2000/svg" width="1600" height="900" viewBox="0 0 1600 900">
  <defs>
    <linearGradient id="bg3" x1="0" y1="0" x2="1" y2="1">
      <stop offset="0%" stop-color="#0b0d12"/>
      <stop offset="100%" stop-color="#141826"/>
    </linearGradient>
    <filter id="shadow3" x="-20%" y="-20%" width="140%" height="140%">
      <feDropShadow dx="0" dy="16" stdDeviation="18" flood-color="#000000" flood-opacity="0.45"/>
    </filter>
  </defs>
  <rect width="1600" height="900" fill="url(#bg3)"/>
  <rect x="52" y="46" width="1496" height="808" rx="30" fill="#10131a" stroke="#2d3342" filter="url(#shadow3)"/>
  <text x="90" y="110" fill="#f4f4f4" font-family="Inter, Arial, sans-serif" font-size="34" font-weight="700">Reporting</text>
  <text x="90" y="156" fill="#b9c0d4" font-family="Inter, Arial, sans-serif" font-size="20">Markdown report generation with findings, alerts, and hardening guidance</text>
  <rect x="90" y="214" width="320" height="78" rx="18" fill="#ff5555"/>
  <text x="122" y="262" fill="#ffffff" font-family="Inter, Arial, sans-serif" font-size="24" font-weight="700">Build and Save Report</text>
  <rect x="90" y="328" width="1420" height="438" rx="22" fill="#1a1f2a"/>
  <text x="126" y="380" fill="#e5e7eb" font-family="Inter, Arial, sans-serif" font-size="24" font-weight="600">WiFi Security Assessment Report</text>
  <text x="126" y="426" fill="#cfd5e4" font-family="Inter, Arial, sans-serif" font-size="18">Generated: 2026-05-01 22:52:36</text>
  <text x="126" y="482" fill="#cfd5e4" font-family="Inter, Arial, sans-serif" font-size="20">Network Risk Findings</text>
  <text x="146" y="522" fill="#cfd5e4" font-family="Inter, Arial, sans-serif" font-size="18">High risk networks: 2</text>
  <text x="146" y="560" fill="#cfd5e4" font-family="Inter, Arial, sans-serif" font-size="18">Medium risk networks: 3</text>
  <text x="146" y="598" fill="#cfd5e4" font-family="Inter, Arial, sans-serif" font-size="18">Low risk networks: 8</text>
  <text x="126" y="658" fill="#cfd5e4" font-family="Inter, Arial, sans-serif" font-size="20">Traffic Anomaly Summary</text>
  <rect x="980" y="382" width="476" height="270" rx="18" fill="#242a38"/>
  <rect x="1016" y="438" width="404" height="24" rx="12" fill="#ff5555"/>
  <rect x="1016" y="492" width="320" height="24" rx="12" fill="#fbbf24"/>
  <rect x="1016" y="546" width="220" height="24" rx="12" fill="#60a5fa"/>
  <text x="1016" y="414" fill="#e5e7eb" font-family="Inter, Arial, sans-serif" font-size="20" font-weight="600">Status Overview</text>
  <text x="1016" y="678" fill="#cfd5e4" font-family="Inter, Arial, sans-serif" font-size="18">Saved to reports/wifi_security_report_*.md</text>
  <text x="126" y="718" fill="#cfd5e4" font-family="Inter, Arial, sans-serif" font-size="18">Adaptive learning insights and hardening recommendations included.</text>
</svg>